<svg id="Isolation_Mode" data-name="Isolation Mode" xmlns="http://www.w3.org/2000/svg" viewBox="0 0 980.6 180.5"><defs><style>.cls-1{fill:#8b9da7;}.cls-2{fill:#8c00a0;}</style></defs><path class="cls-1" d="M755,186.5c0,30.6-21.7,55.5-52.4,55.5H660.9V130.9h41.7C733.3,130.9,755,155.8,755,186.5Zm-8.2,0c0-26.3-17.9-47.6-44.1-47.6H669.4v95.2h33.3C728.8,234.1,746.8,212.8,746.8,186.5Z" transform="translate(-448.4 -97.3)"/><path class="cls-1" d="M843.3,202.7c0,1.3-.2,2.5-.2,3.8H771.2c1.9,17.9,15.6,29.7,33.6,29.7,13,0,22.9-6,27.5-14.4l7,4.1c-6.5,10.8-18.9,17.9-34.6,17.9-24.4,0-41.7-17.5-41.7-41.4,0-23.3,16.8-41.4,41.1-41.4C828.2,160.9,843.3,180.9,843.3,202.7Zm-72.1-4H835c-1.7-19.4-15.4-30.2-30.9-30.2C786,168.5,772.8,181.1,771.2,198.7Z" transform="translate(-448.4 -97.3)"/><path class="cls-1" d="M885.6,138.9v44.4h51.3v7.9H885.6V242h-8.4V130.9h61.6v7.9H885.6Z" transform="translate(-448.4 -97.3)"/><path class="cls-1" d="M949.1,137.1a6.3,6.3,0,1,1,6.3,6.3A6.39,6.39,0,0,1,949.1,137.1Zm2.4,25.6h7.9V242h-7.9Z" transform="translate(-448.4 -97.3)"/><path class="cls-1" d="M1052.4,202.7c0,1.3-.2,2.5-.2,3.8H980.3c1.9,17.9,15.6,29.7,33.6,29.7,13,0,22.9-6,27.5-14.4l7,4.1c-6.5,10.8-18.9,17.9-34.6,17.9-24.4,0-41.7-17.5-41.7-41.4,0-23.3,16.8-41.4,41.1-41.4C1037.3,160.9,1052.4,180.9,1052.4,202.7Zm-72-4h63.8c-1.7-19.4-15.4-30.2-30.9-30.2C995.1,168.5,982,181.1,980.4,198.7Z" transform="translate(-448.4 -97.3)"/><path class="cls-1" d="M1115,221.2c0,13-11.4,22.5-28.4,22.5-15.9,0-26.3-7.5-30.2-17.6l6.8-4c2.9,8.6,11.4,14,23.3,14,11.1,0,20.5-4.9,20.5-14.9,0-21.6-48.1-9.2-48.1-37.8,0-12.5,10.8-22.5,27-22.5,12.9,0,22.7,6.2,27,15.9l-6.7,3.8c-3.3-8.3-11.6-12.1-20.3-12.1-10.3,0-19,5.4-19,14.9C1066.9,204.7,1115,192.2,1115,221.2Z" transform="translate(-448.4 -97.3)"/><path class="cls-1" d="M1141.6,170.4V222c0,14,7.5,14.3,23.6,12.9V242c-20.8,3.2-31.7-1.9-31.7-20V170.4H1116v-7.8h17.5V142.8l8.1-2.4v22.2h23.6v7.8Z" transform="translate(-448.4 -97.3)"/><path class="cls-1" d="M1251.1,162.7V242H1243V224.1a38.22,38.22,0,0,1-34.1,19.7,41.4,41.4,0,0,1,0-82.8c15.2,0,27.5,7.8,34.1,19.7V162.8h8.1Zm-8.1,39.6c0-18.9-14.6-33.8-33.5-33.8a33.8,33.8,0,0,0,0,67.6C1228.4,236.1,1243,221.2,1243,202.3Z" transform="translate(-448.4 -97.3)"/><path class="cls-2" d="M1266.3,234.6a9.5,9.5,0,1,1,9.5,9.5A9.56,9.56,0,0,1,1266.3,234.6Z" transform="translate(-448.4 -97.3)"/><path class="cls-2" d="M1370.9,211.9v30.9h-15.1V213.3c0-5-2.4-8.2-7.2-8.2-5,0-7.8,3.5-7.8,9.4v28.3h-15.1V213.3c0-5-2.4-8.2-7.2-8.2-5,0-7.8,3.5-7.8,9.4v28.3h-15.1V192.5h15.1v4.6c2.3-3.4,6.7-6,13.5-6,5.9,0,10.4,2.4,13.2,6.6,2.8-4,7.4-6.6,14.6-6.6C1363.3,191.1,1370.9,199.3,1370.9,211.9Z" transform="translate(-448.4 -97.3)"/><path class="cls-2" d="M1411.7,242.7l-9.3-13.3-9.3,13.3h-17.3l18-25.5-17.4-24.7h17.3l8.7,12.5,8.7-12.5h17.3L1411,217.2l18,25.5Z" transform="translate(-448.4 -97.3)"/><path class="cls-2" d="M496.1,277.8h61c-2.4-11-9.4-20.4-23.9-26.4H520C505.5,257.3,498.6,266.8,496.1,277.8Zm30.6-20.2,3.5,1.4c6.5,2.7,11.3,6.1,14.5,10.5h-36c3.2-4.4,8-7.8,14.5-10.5Z" transform="translate(-448.4 -97.3)"/><path class="cls-2" d="M589.8,124.2a25,25,0,0,0-17.5-12.8,4.3,4.3,0,0,0-1.6,0,3.3,3.3,0,0,0-3,2.9A4,4,0,0,0,571,118a18.21,18.21,0,0,1,12.8,9.4,4.14,4.14,0,0,0,4,2.2c.2,0,.3-.1.5-.1a2.43,2.43,0,0,0,1.7-1.7A3.59,3.59,0,0,0,589.8,124.2Z" transform="translate(-448.4 -97.3)"/><path class="cls-2" d="M503.3,127.4a4.14,4.14,0,0,0,4,2.2c.2,0,.3-.1.5-.1a2.43,2.43,0,0,0,1.7-1.7,4.58,4.58,0,0,0-.3-3.6,25,25,0,0,0-17.5-12.8,4.3,4.3,0,0,0-1.6,0,3.3,3.3,0,0,0-3,2.9,4,4,0,0,0,3.3,3.7A18.46,18.46,0,0,1,503.3,127.4Z" transform="translate(-448.4 -97.3)"/><path class="cls-2" d="M533.1,166.6a4.3,4.3,0,0,0-1.6,0,3.3,3.3,0,0,0-3,2.9,4,4,0,0,0,3.3,3.7,18.21,18.21,0,0,1,12.8,9.4,4.14,4.14,0,0,0,4,2.2c.2,0,.3-.1.5-.1a2.43,2.43,0,0,0,1.7-1.7,4.58,4.58,0,0,0-.3-3.6A24.67,24.67,0,0,0,533.1,166.6Z" transform="translate(-448.4 -97.3)"/><path class="cls-2" d="M609.8,144.3c0-26-18.1-47-40.5-47-20.8,0-37.8,18.2-40.2,41.6-2.3-23.4-19.4-41.6-40.2-41.6-22.3,0-40.5,21.1-40.5,47,0,21.2,12.1,39,28.6,44.9-9.1,5.2-13.7,12.3-15.5,20.4h24c3.9,23.8,21.9,41.8,43.6,41.8s39.6-18,43.6-41.8h19.6c-1.7-7.7-5.9-14.4-14-19.5C596.3,185.3,609.8,166.7,609.8,144.3Zm-125,58.1H472.5c2.8-3.8,7-6.8,12.6-9.2h0c-.2,2.2-.4,4.3-.4,6.6A23.48,23.48,0,0,1,484.8,202.4ZM456,144.3c0-21.8,14.8-39.5,33-39.5s33,17.7,33,39.5a35.93,35.93,0,0,1-.3,4.7c-16.3,3.2-29.6,16.8-34.6,34.6C469.8,182.4,456,165.3,456,144.3Zm73.2,99.3c-20.2,0-36.6-19.7-36.6-43.8S509,156,529.2,156s36.6,19.7,36.6,43.8S549.4,243.6,529.2,243.6Zm52.3-41.2h-8c0-.9.1-1.7.1-2.6,0-1.5-.1-2.9-.2-4.3A25.13,25.13,0,0,1,581.5,202.4Zm-10.2-18.7c-5.1-17.9-18.3-31.4-34.6-34.6a37.08,37.08,0,0,1-.3-4.7c0-21.8,14.8-39.5,33-39.5s33,17.7,33,39.5C602.3,165.3,588.5,182.4,571.3,183.7Z" transform="translate(-448.4 -97.3)"/></svg>